<?xml version="1.0" encoding="utf-8"?>
<!-- Generator: Adobe Illustrator 21.1.0, SVG Export Plug-In . SVG Version: 6.00 Build 0)  -->
<svg version="1.1" id="Слой_1" xmlns="http://www.w3.org/2000/svg" xmlns:xlink="http://www.w3.org/1999/xlink" x="0px" y="0px"
	 viewBox="0 0 320 90" style="enable-background:new 0 0 320 90;" xml:space="preserve">
<style type="text/css">
	.st0{fill:#223B55;}
	.st1{fill:#FFFFFF;}
	.st2{fill:#E9AF30;}
</style>
<rect x="-1" y="-1.4" class="st0" width="321.1" height="91.4"/>
<g>
	<path class="st1" d="M86,24c0,5.2-1.2,9.2-3.6,12c-2.4,2.8-5.8,4.2-10.2,4.2c-4.3,0-7.6-1.4-10.1-4.1c-2.5-2.7-3.8-6.6-3.8-11.6
		v-7.2c0-5.1,1.2-9.1,3.7-12C64.3,2.5,67.7,1,72.1,1c4.4,0,7.7,1.4,10.2,4.2c2.4,2.8,3.7,6.7,3.7,11.9V24z M80.8,17.3
		c0-4-0.7-7-2.1-9c-1.4-2-3.6-3-6.6-3c-2.9,0-5,1-6.5,3c-1.5,2-2.2,4.9-2.2,8.8V24c0,3.9,0.7,6.9,2.2,8.9c1.5,2,3.7,3.1,6.6,3.1
		c2.9,0,5.1-0.9,6.5-2.8c1.4-1.9,2.1-4.8,2.2-8.7V17.3z"/>
	<path class="st1" d="M104.7,36.3c1.7,0,3-0.5,4-1.4c1-1,1.6-2.3,1.6-4.1h4.7c-0.1,2.7-1.2,5-3.1,6.8c-2,1.8-4.4,2.7-7.2,2.7
		c-3.8,0-6.7-1.1-8.7-3.3c-2-2.2-3-5.5-3-9.9V24c0-4.3,1-7.5,3-9.8s4.9-3.3,8.7-3.3c3.1,0,5.6,0.9,7.5,2.8c1.8,1.8,2.8,4.3,2.9,7.5
		h-4.7c-0.1-2.1-0.7-3.7-1.6-4.7c-1-1-2.3-1.6-4-1.6c-2.2,0-3.9,0.7-5,2c-1.1,1.4-1.6,3.6-1.7,6.7v3.6c0,3.3,0.5,5.7,1.6,7.1
		C100.7,35.6,102.4,36.3,104.7,36.3z"/>
	<path class="st1" d="M132.6,40.3c-3.8,0-6.8-1.1-8.8-3.2c-2-2.1-3.1-5.2-3.1-9.3v-3.4c0-4.2,1-7.6,3-10c2-2.4,4.8-3.6,8.4-3.6
		c3.6,0,6.3,1.1,8.1,3.2s2.7,5.4,2.7,9.9v3h-17.1v0.7c0,3,0.6,5.3,1.9,6.6c1.2,1.4,3,2.1,5.3,2.1c1.5,0,2.8-0.3,3.9-0.8
		c1.1-0.5,2.2-1.3,3.2-2.5l2.6,2.9C140.4,38.9,137.1,40.3,132.6,40.3z M132.1,14.8c-2.1,0-3.6,0.7-4.6,2c-1,1.3-1.6,3.4-1.7,6.2
		h12.1v-0.6c-0.1-2.7-0.7-4.6-1.6-5.8C135.3,15.4,133.9,14.8,132.1,14.8z"/>
	<path class="st1" d="M168.7,15.3h-8.4v24.5h-5V15.3h-8.3v-3.9h21.6V15.3z"/>
	<path class="st1" d="M196.9,26.9c0,4.5-0.9,7.8-2.6,10.1c-1.8,2.2-4.2,3.3-7.4,3.3c-3.1,0-5.5-1.1-7.1-3.2v13.6h-5V11.4h4.5
		l0.3,3.1c1.7-2.4,4.1-3.7,7.2-3.7c3.4,0,5.9,1.1,7.5,3.3c1.7,2.2,2.5,5.4,2.6,9.7V26.9z M191.9,24.3c0-3.2-0.5-5.5-1.6-7
		s-2.8-2.3-5.1-2.3c-2.4,0-4.2,1.1-5.5,3.3v14.8c1.2,2.2,3.1,3.3,5.5,3.3c2.3,0,3.9-0.8,5-2.3c1.1-1.5,1.6-3.8,1.6-6.9V24.3z"/>
	<path class="st1" d="M203.1,24.2c0-4.1,1.1-7.4,3.2-9.8c2.2-2.4,5-3.6,8.6-3.6c3.6,0,6.4,1.2,8.6,3.5c2.2,2.3,3.3,5.5,3.3,9.6v3
		c0,4.1-1.1,7.4-3.2,9.8c-2.2,2.4-5,3.6-8.6,3.6c-3.6,0-6.4-1.2-8.6-3.5c-2.1-2.3-3.3-5.5-3.3-9.4V24.2z M208.1,26.9
		c0,2.9,0.6,5.2,1.9,6.9c1.2,1.7,2.9,2.5,5,2.5c4.4,0,6.7-3,6.8-8.9v-3.2c0-2.9-0.6-5.2-1.9-6.9c-1.2-1.7-2.9-2.5-5-2.5
		c-2.1,0-3.7,0.8-5,2.5c-1.2,1.7-1.9,4-1.9,6.9V26.9z"/>
	<path class="st1" d="M234.5,39.8V11.4h10.3c3.5,0,6.2,0.7,8.1,2c1.9,1.3,2.8,3.3,2.8,5.8c0,1.3-0.4,2.5-1.1,3.5
		c-0.7,1-1.8,1.9-3.2,2.4c1.6,0.4,2.8,1.2,3.8,2.3c1,1.2,1.4,2.6,1.4,4.3c0,2.6-0.9,4.6-2.7,6c-1.8,1.4-4.3,2.1-7.5,2.1H234.5z
		 M239.5,23.4h5.2c3.9,0,5.9-1.3,5.9-4c0-2.7-1.8-4-5.5-4.1h-5.6V23.4z M239.5,27.3v8.6h6.9c3.4,0,5.1-1.4,5.1-4.3
		c0-2.8-1.7-4.3-5.1-4.3H239.5z"/>
	<path class="st1" d="M280.7,11.4h5v28.4h-5V19l-11.1,20.7h-5V11.4h5v20.7L280.7,11.4z"/>
	<path class="st1" d="M314.4,39.8h-5V29.6c-1.8,0.5-3.7,0.7-5.6,0.7c-3.1,0-5.6-0.9-7.3-2.7c-1.7-1.8-2.6-4.4-2.7-7.7v-8.6h5v8.7
		c0.1,4.2,1.8,6.2,5,6.2c1.9,0,3.8-0.3,5.6-0.8V11.4h5V39.8z"/>
</g>
<g>
	<path class="st2" d="M111.8,67.4l0.4-0.5c0.4-0.6,0.6-1.5,0.7-2.7l0.1-3.3h4.2v6.5h0.9v3.3h-1.2v-2.2h-4.3v2.2h-1.3l0-3.3H111.8z
		 M113.2,67.4h2.8V62h-1.8l-0.1,1.9C114,65.4,113.7,66.5,113.2,67.4z"/>
	<path class="st2" d="M119.5,64.3c0-1.1,0.3-2,0.8-2.6c0.5-0.6,1.2-1,2.1-1c0.9,0,1.6,0.3,2.1,0.9s0.8,1.5,0.8,2.6V65
		c0,1.1-0.3,2-0.8,2.6c-0.5,0.6-1.2,1-2.1,1c-0.9,0-1.6-0.3-2.1-0.9c-0.5-0.6-0.8-1.5-0.8-2.5V64.3z M120.7,65
		c0,0.8,0.2,1.4,0.5,1.8s0.7,0.7,1.2,0.7c1.1,0,1.7-0.8,1.7-2.4v-0.9c0-0.8-0.2-1.4-0.5-1.8c-0.3-0.5-0.7-0.7-1.2-0.7
		c-0.5,0-0.9,0.2-1.2,0.7s-0.5,1.1-0.5,1.8V65z"/>
	<path class="st2" d="M129.8,67.5c0.4,0,0.7-0.1,1-0.4c0.2-0.3,0.4-0.6,0.4-1.1h1.2c0,0.7-0.3,1.3-0.8,1.8c-0.5,0.5-1.1,0.7-1.8,0.7
		c-0.9,0-1.7-0.3-2.2-0.9s-0.7-1.5-0.7-2.6v-0.8c0-1.1,0.2-2,0.7-2.6c0.5-0.6,1.2-0.9,2.1-0.9c0.8,0,1.4,0.2,1.9,0.7
		c0.5,0.5,0.7,1.2,0.7,2h-1.2c0-0.6-0.2-1-0.4-1.3s-0.6-0.4-1-0.4c-0.6,0-1,0.2-1.2,0.5c-0.3,0.4-0.4,1-0.4,1.8v1
		c0,0.9,0.1,1.5,0.4,1.9S129.2,67.5,129.8,67.5z"/>
	<path class="st2" d="M138.8,61.9h-2.1v6.5h-1.2v-6.5h-2v-1.1h5.4V61.9z"/>
	<path class="st2" d="M144.1,68.4c-0.1-0.2-0.1-0.4-0.2-0.8c-0.4,0.6-1,1-1.7,1c-0.7,0-1.2-0.2-1.6-0.6c-0.4-0.4-0.6-0.9-0.6-1.6
		c0-0.8,0.3-1.4,0.8-1.8c0.5-0.5,1.2-0.7,2.2-0.7h0.9V63c0-0.5-0.1-0.8-0.3-1c-0.2-0.2-0.5-0.3-0.9-0.3c-0.4,0-0.7,0.1-0.9,0.3
		c-0.2,0.2-0.4,0.5-0.4,0.8h-1.2c0-0.4,0.1-0.8,0.3-1.1s0.5-0.6,0.9-0.8c0.4-0.2,0.8-0.3,1.3-0.3c0.8,0,1.4,0.2,1.8,0.6
		c0.4,0.4,0.6,0.9,0.6,1.7v3.8c0,0.6,0.1,1.1,0.2,1.5v0.1H144.1z M142.4,67.4c0.3,0,0.6-0.1,0.9-0.3c0.3-0.2,0.5-0.4,0.6-0.6v-1.8
		h-0.7c-0.6,0-1.1,0.1-1.4,0.4c-0.3,0.3-0.5,0.6-0.5,1.1c0,0.4,0.1,0.7,0.3,0.9S142,67.4,142.4,67.4z"/>
	<path class="st2" d="M147.4,68.4v-7.6h2.6c0.9,0,1.5,0.2,2,0.5c0.5,0.4,0.7,0.9,0.7,1.6c0,0.4-0.1,0.7-0.3,0.9
		c-0.2,0.3-0.4,0.5-0.8,0.6c0.4,0.1,0.7,0.3,0.9,0.6s0.4,0.7,0.4,1.1c0,0.7-0.2,1.2-0.7,1.6c-0.4,0.4-1.1,0.6-1.9,0.6H147.4z
		 M148.6,64.1h1.3c1,0,1.5-0.4,1.5-1.1c0-0.7-0.5-1.1-1.4-1.1h-1.4V64.1z M148.6,65.1v2.3h1.7c0.8,0,1.3-0.4,1.3-1.2
		c0-0.8-0.4-1.1-1.3-1.1H148.6z"/>
	<path class="st2" d="M156.8,65.2h-0.7v3.2h-1.2v-7.6h1.2V64h0.6l2.1-3.2h1.5l-2.5,3.6l2.7,4h-1.6L156.8,65.2z"/>
	<path class="st2" d="M165.7,68.4c-0.1-0.2-0.1-0.4-0.2-0.8c-0.4,0.6-1,1-1.7,1c-0.7,0-1.2-0.2-1.6-0.6c-0.4-0.4-0.6-0.9-0.6-1.6
		c0-0.8,0.3-1.4,0.8-1.8s1.2-0.7,2.2-0.7h0.9V63c0-0.5-0.1-0.8-0.3-1c-0.2-0.2-0.5-0.3-0.9-0.3c-0.4,0-0.7,0.1-0.9,0.3
		c-0.2,0.2-0.4,0.5-0.4,0.8h-1.2c0-0.4,0.1-0.8,0.3-1.1s0.5-0.6,0.9-0.8c0.4-0.2,0.8-0.3,1.3-0.3c0.8,0,1.4,0.2,1.8,0.6
		c0.4,0.4,0.6,0.9,0.6,1.7v3.8c0,0.6,0.1,1.1,0.2,1.5v0.1H165.7z M164.1,67.4c0.3,0,0.6-0.1,0.9-0.3c0.3-0.2,0.5-0.4,0.6-0.6v-1.8
		h-0.7c-0.6,0-1.1,0.1-1.4,0.4c-0.3,0.3-0.5,0.6-0.5,1.1c0,0.4,0.1,0.7,0.3,0.9C163.4,67.3,163.7,67.4,164.1,67.4z"/>
	<path class="st2" d="M177.9,65c0,1.2-0.2,2.1-0.6,2.7c-0.4,0.6-1,0.9-1.8,0.9c-0.8,0-1.4-0.3-1.8-0.9v3.6h-1.2V60.8h1.1l0.1,0.8
		c0.4-0.7,1-1,1.8-1c0.8,0,1.5,0.3,1.9,0.9c0.4,0.6,0.6,1.5,0.6,2.6V65z M176.7,64.3c0-0.9-0.1-1.5-0.4-1.9
		c-0.3-0.4-0.7-0.6-1.3-0.6c-0.6,0-1,0.3-1.4,0.9v4c0.3,0.6,0.8,0.9,1.4,0.9c0.6,0,1-0.2,1.2-0.6c0.3-0.4,0.4-1,0.4-1.9V64.3z"/>
	<path class="st2" d="M181.1,63.4h1.6c0.7,0,1.3,0.2,1.7,0.7s0.6,1,0.6,1.8c0,0.8-0.2,1.4-0.7,1.8c-0.4,0.5-1,0.7-1.7,0.7h-2.8v-7.6
		h1.2V63.4z M181.1,64.5v2.9h1.5c0.4,0,0.6-0.1,0.9-0.4c0.2-0.2,0.3-0.6,0.3-1c0-0.4-0.1-0.8-0.3-1s-0.5-0.4-0.8-0.4H181.1z
		 M187.3,68.4h-1.2v-7.6h1.2V68.4z"/>
	<path class="st2" d="M192.6,61.3c0.8,0,1.4,0.3,1.9,1c0.5,0.6,0.7,1.5,0.7,2.5v0.1c0,1.1-0.3,2-0.8,2.7c-0.5,0.7-1.2,1-2.1,1
		c-0.9,0-1.6-0.3-2.1-1c-0.5-0.7-0.8-1.6-0.8-2.7v-0.6c0-1.6,0.2-2.8,0.7-3.8c0.5-0.9,1.2-1.5,2.2-1.7c0.5-0.1,0.9-0.3,1.1-0.4
		c0.2-0.2,0.3-0.4,0.3-0.7h1l0,0.3c-0.1,0.9-0.5,1.5-1.3,1.8l-0.9,0.2c-0.6,0.2-1.1,0.5-1.4,0.9c-0.3,0.4-0.5,1-0.6,1.7
		C191.1,61.6,191.8,61.3,192.6,61.3z M192.3,62.3c-0.5,0-0.9,0.2-1.2,0.6s-0.4,1.1-0.4,1.9c0,0.8,0.1,1.5,0.4,1.9
		c0.3,0.5,0.7,0.7,1.2,0.7s0.9-0.2,1.2-0.7c0.3-0.5,0.4-1.2,0.4-2.1c0-0.7-0.1-1.3-0.4-1.7C193.2,62.5,192.8,62.3,192.3,62.3z"/>
	<path class="st2" d="M198.2,63.4h1.6c0.7,0,1.3,0.2,1.7,0.7s0.6,1,0.6,1.8c0,0.8-0.2,1.4-0.7,1.8c-0.4,0.5-1,0.7-1.7,0.7H197v-7.6
		h1.2V63.4z M198.2,64.5v2.9h1.5c0.4,0,0.6-0.1,0.9-0.4c0.2-0.2,0.3-0.6,0.3-1c0-0.4-0.1-0.8-0.3-1s-0.5-0.4-0.8-0.4H198.2z
		 M204.5,68.4h-1.2v-7.6h1.2V68.4z"/>
	<path class="st2" d="M214.5,60.8h1.2v7.6h-1.2v-5.5l-2.8,5.5h-1.2v-7.6h1.2v5.5L214.5,60.8z"/>
	<path class="st2" d="M225.1,66.7l2-5.9h1.5v7.6h-1.2v-5.2l-1.9,5.2h-0.9l-2-5.4v5.4h-1.2v-7.6h1.6L225.1,66.7z"/>
	<path class="st2" d="M230.6,64.3c0-1.1,0.3-2,0.8-2.6c0.5-0.6,1.2-1,2.1-1c0.9,0,1.6,0.3,2.1,0.9c0.5,0.6,0.8,1.5,0.8,2.6V65
		c0,1.1-0.3,2-0.8,2.6s-1.2,1-2.1,1c-0.9,0-1.6-0.3-2.1-0.9c-0.5-0.6-0.8-1.5-0.8-2.5V64.3z M231.9,65c0,0.8,0.2,1.4,0.5,1.8
		s0.7,0.7,1.2,0.7c1.1,0,1.7-0.8,1.7-2.4v-0.9c0-0.8-0.2-1.4-0.5-1.8c-0.3-0.5-0.7-0.7-1.2-0.7c-0.5,0-0.9,0.2-1.2,0.7
		s-0.5,1.1-0.5,1.8V65z"/>
	<path class="st2" d="M243.8,65c0,1.2-0.2,2.1-0.6,2.7c-0.4,0.6-1,0.9-1.8,0.9c-0.8,0-1.4-0.3-1.8-0.9v3.6h-1.2V60.8h1.1l0.1,0.8
		c0.4-0.7,1-1,1.8-1c0.8,0,1.5,0.3,1.9,0.9c0.4,0.6,0.6,1.5,0.6,2.6V65z M242.6,64.3c0-0.9-0.1-1.5-0.4-1.9
		c-0.3-0.4-0.7-0.6-1.3-0.6c-0.6,0-1,0.3-1.4,0.9v4c0.3,0.6,0.8,0.9,1.4,0.9c0.6,0,1-0.2,1.2-0.6c0.3-0.4,0.4-1,0.4-1.9V64.3z"/>
	<path class="st2" d="M248.3,68.6c-0.9,0-1.7-0.3-2.2-0.8s-0.8-1.4-0.8-2.5v-0.9c0-1.1,0.2-2,0.7-2.7c0.5-0.6,1.2-1,2.1-1
		c0.9,0,1.6,0.3,2,0.9c0.4,0.6,0.7,1.4,0.7,2.6V65h-4.2v0.2c0,0.8,0.2,1.4,0.5,1.8c0.3,0.4,0.7,0.6,1.3,0.6c0.4,0,0.7-0.1,1-0.2
		c0.3-0.1,0.5-0.4,0.8-0.7l0.6,0.8C250.2,68.2,249.4,68.6,248.3,68.6z M248.2,61.8c-0.5,0-0.9,0.2-1.1,0.5s-0.4,0.9-0.4,1.6h3v-0.2
		c0-0.7-0.2-1.2-0.4-1.5C249,61.9,248.6,61.8,248.2,61.8z"/>
	<path class="st2" d="M257.9,68.4h-1.2v-6.5h-2.7v6.5h-1.3v-7.6h5.2V68.4z"/>
	<path class="st2" d="M265.6,65c0,1.2-0.2,2.1-0.6,2.7c-0.4,0.6-1,0.9-1.8,0.9c-0.8,0-1.4-0.3-1.8-0.9v3.6h-1.2V60.8h1.1l0.1,0.8
		c0.4-0.7,1-1,1.8-1c0.8,0,1.5,0.3,1.9,0.9c0.4,0.6,0.6,1.5,0.6,2.6V65z M264.3,64.3c0-0.9-0.1-1.5-0.4-1.9
		c-0.3-0.4-0.7-0.6-1.3-0.6c-0.6,0-1,0.3-1.4,0.9v4c0.3,0.6,0.8,0.9,1.4,0.9c0.6,0,1-0.2,1.2-0.6c0.3-0.4,0.4-1,0.4-1.9V64.3z"/>
	<path class="st2" d="M267.1,64.3c0-1.1,0.3-2,0.8-2.6c0.5-0.6,1.2-1,2.1-1c0.9,0,1.6,0.3,2.1,0.9c0.5,0.6,0.8,1.5,0.8,2.6V65
		c0,1.1-0.3,2-0.8,2.6s-1.2,1-2.1,1c-0.9,0-1.6-0.3-2.1-0.9c-0.5-0.6-0.8-1.5-0.8-2.5V64.3z M268.3,65c0,0.8,0.2,1.4,0.5,1.8
		s0.7,0.7,1.2,0.7c1.1,0,1.7-0.8,1.7-2.4v-0.9c0-0.8-0.2-1.4-0.5-1.8c-0.3-0.5-0.7-0.7-1.2-0.7c-0.5,0-0.9,0.2-1.2,0.7
		s-0.5,1.1-0.5,1.8V65z"/>
	<path class="st2" d="M274.3,67.4l0.4-0.5c0.4-0.6,0.6-1.5,0.7-2.7l0.1-3.3h4.2v6.5h0.9v3.3h-1.2v-2.2H275v2.2h-1.3l0-3.3H274.3z
		 M275.6,67.4h2.8V62h-1.8l-0.1,1.9C276.5,65.4,276.2,66.5,275.6,67.4z"/>
	<path class="st2" d="M284.3,66.4l1.4-5.5h1.3l-2.5,8.7c-0.2,0.7-0.5,1.1-0.8,1.5s-0.7,0.5-1.2,0.5c-0.2,0-0.4,0-0.6-0.1v-1.1l0.3,0
		c0.4,0,0.6-0.1,0.8-0.3c0.2-0.2,0.4-0.5,0.5-0.9l0.2-0.9l-2.2-7.5h1.4L284.3,66.4z"/>
	<path class="st2" d="M290.4,65.2h-0.7v3.2h-1.2v-7.6h1.2V64h0.6l2.1-3.2h1.5l-2.5,3.6l2.7,4h-1.6L290.4,65.2z"/>
	<path class="st2" d="M300.3,61.9h-2.1v6.5H297v-6.5h-2v-1.1h5.4V61.9z"/>
	<path class="st2" d="M301.3,64.3c0-1.1,0.3-2,0.8-2.6c0.5-0.6,1.2-1,2.1-1c0.9,0,1.6,0.3,2.1,0.9c0.5,0.6,0.8,1.5,0.8,2.6V65
		c0,1.1-0.3,2-0.8,2.6s-1.2,1-2.1,1c-0.9,0-1.6-0.3-2.1-0.9c-0.5-0.6-0.8-1.5-0.8-2.5V64.3z M302.6,65c0,0.8,0.2,1.4,0.5,1.8
		s0.7,0.7,1.2,0.7c1.1,0,1.7-0.8,1.7-2.4v-0.9c0-0.8-0.2-1.4-0.5-1.8c-0.3-0.5-0.7-0.7-1.2-0.7c-0.5,0-0.9,0.2-1.2,0.7
		s-0.5,1.1-0.5,1.8V65z"/>
	<path class="st2" d="M309.1,68.4v-7.6h2.5c0.9,0,1.5,0.2,2,0.5c0.5,0.4,0.7,0.9,0.7,1.6c0,0.4-0.1,0.7-0.3,0.9s-0.5,0.5-0.8,0.6
		c0.4,0.1,0.7,0.3,0.9,0.6s0.4,0.7,0.4,1.1c0,0.7-0.2,1.2-0.7,1.6c-0.4,0.4-1.1,0.6-1.9,0.6H309.1z M310.4,64.1h1.3
		c1,0,1.5-0.4,1.5-1.1c0-0.7-0.5-1.1-1.4-1.1h-1.4V64.1z M310.4,65.1v2.3h1.7c0.8,0,1.3-0.4,1.3-1.2c0-0.8-0.4-1.1-1.3-1.1H310.4z"
		/>
</g>
<path class="st1" d="M60.8,74.9c-3.3,4.4-6,8.9-5.9,14.1c5-1.8,13.3-7.7,17.4-16.2c2.6-0.7,5.1-1.2,7.5-2.1c2-0.8,3.9-1.2,6-1.3
	c1.9-0.1,3.9-0.5,5.9-0.7c-0.2,0.3-0.4,0.7-0.6,1c0,0,0.1,0,0.1,0.1c0.3-0.4,0.6-0.8,1-1.2c0.1,0.1,0.1,0.2,0.2,0.3
	c0.2-0.2,0.4-0.3,0.6-0.5c0.2,0.3,0.4,0.6,0.6,0.8c0-0.3,0-0.7,0.1-1.1c1.9-0.7,3.9-1.5,5.6-3c-0.4-0.1-0.7-0.1-0.9-0.2
	c-2.9-0.7-5.9-1.2-8.8-2c-2.5-0.6-4.7-1.7-6.6-3.2c-1.8-1.5-4-2.3-6.5-2.5c-2-0.2-3.8-0.5-5-2c-0.6,0.5-1.1,0.9-1.6,1.3
	c-1.3,1-1.9,1.1-3.1,0.2c-0.4-0.3-0.9-0.7-1.3-1c-0.6-0.5-1.2-0.4-1.8,0.1c-0.4,0.4-0.8,0.7-1.3,1.1c-1.1,0.8-1.6,0.9-2.7,0.3
	c-0.5-0.3-1-0.6-1.6-1c-0.5-0.3-0.9-0.3-1.4,0.2c-1.9,2-1.9,2-4.1,0.9c-1.5-0.8-2.1-0.7-3.3,0.8c-1,1.3-2.2,1.6-3.5,0.8
	c-0.4-0.2-0.7-0.5-1.1-0.8c-0.9-0.6-1.6-0.4-2.4,0.5c-0.3,0.4-0.6,0.8-0.9,1.2c-0.9,1-1.8,1.3-2.9,0.7c-0.5-0.3-0.9-0.6-1.3-0.9
	c-1.1-0.7-2-0.5-3,0.6c-1,1.1-2.3,1.4-3.8,0.8c-2.3-0.9-4-2.4-5.4-4.2c-3-3.8-4-8.2-2.7-13.3c0.1-0.3,0.1-0.6,0.1-1
	C25,44,27.5,45,30.6,44c1.3-0.4,2.2-1.1,3-2c-1.3-1-2.7-2.1-4.1-3.2c-1.8,1.2-3.7,1.1-5.6,0.5c0.8-2.1,1.9-4.1,3.3-5.9
	c0.1-0.2,0.6-0.3,0.9-0.3c4.2,0.2,7.9-1.1,11.3-3.9c0.2-0.2,0.5-0.4,0.8-0.7c-2.5-1.9-5.6-2.1-9-1.8c0.8-7.7,4.9-14.4,9.5-21.3
	c-2.2,1.2-3.9,2.6-5.5,4.1c-5,4.8-8.2,10.5-10.5,16.5c-0.3,0.9-0.7,1.8-0.9,2.7c-0.4,1.7-1.8,3.1-2.8,4.6c-0.4-0.9-0.7-1.7-1-2.5
	c-0.1,0-0.2,0-0.3,0c-0.1,0.2-0.2,0.4-0.3,0.7c-1.5,4.8-3.6,6.6-8.7,7.8c-0.1,0-0.2,0.1-0.4,0.1c0.7,2.3,1.9,4.2,3.8,5.6
	c1.1,0.8,1.4,1.6,1.2,2.9c-0.5,4.9,0.4,9.4,3,13.3c0.1,0.1,0.2,0.3,0.3,0.5c-0.5,0.1-0.9,0.2-1.3,0.2c-0.6,0-0.9,0.3-0.7,0.7
	c0.7,2.3,2,4.2,4.4,5.1c0.5,0.2,1.3,0,1.9-0.2c1.1-0.4,2-0.4,3,0.2c8.2,5.2,17.3,8.1,28.1,7.6C56.1,75.5,58.4,75.2,60.8,74.9z"/>
</svg>
